<svg width="59" height="65" viewBox="0 0 59 65" fill="none" xmlns="http://www.w3.org/2000/svg">
<path d="M45.2434 8.3838C43.3824 6.37415 40.1374 6.38215 38.2912 8.39712L33.9055 13.1707L28.4824 19.0504H17.2085C16.7041 19.05 16.2119 19.2181 15.7988 19.532C15.3858 19.8458 15.072 20.29 14.9001 20.8041L5.06681 50.1225C4.73985 51.0953 4.96356 52.1854 5.63714 52.9184L10.5538 58.249C10.8843 58.6083 11.3028 58.8574 11.7598 58.967C12.2168 59.0766 12.6932 59.042 13.1326 58.8674L40.1743 48.2061C40.6485 48.0198 41.0582 47.6796 41.3476 47.2318C41.6371 46.7839 41.7922 46.2503 41.7919 45.7034V33.4803L47.2174 27.598V27.5953H47.2199L51.6252 22.8058C52.5544 21.7983 53.0658 20.4576 53.0633 19.0344C53.0633 17.6084 52.5495 16.2678 51.6178 15.263L45.2434 8.3838ZM37.5955 30.4925C37.3667 30.7396 37.1854 31.0333 37.0617 31.3567C36.9381 31.6801 36.8747 32.0268 36.8752 32.3769V43.8377L14.1381 52.8011L25.6209 40.3515C25.6849 40.3541 25.7488 40.3728 25.8127 40.3728C26.542 40.3728 27.2549 40.1383 27.8613 39.699C28.4678 39.2597 28.9404 38.6353 29.2195 37.9048C29.4986 37.1743 29.5716 36.3704 29.4293 35.5949C29.287 34.8194 28.9358 34.107 28.4201 33.5479C27.9044 32.9887 27.2474 32.608 26.5321 32.4537C25.8168 32.2994 25.0753 32.3786 24.4015 32.6812C23.7277 32.9838 23.1518 33.4962 22.7466 34.1537C22.3414 34.8112 22.1252 35.5841 22.1252 36.3748C22.1252 36.4441 22.1424 36.5134 22.1448 36.5827L10.662 49.0324L18.9293 24.381H29.5002C30.1541 24.381 30.7785 24.1011 31.2382 23.6L35.646 18.8211L42.0033 25.7136L37.5955 30.4925ZM45.4769 21.9422L39.1196 15.0497L41.7722 12.1605L48.1466 19.0397L45.4769 21.9422Z" fill="#FD526B"/>
</svg>
