<svg width="70" height="59" viewBox="0 0 70 59" fill="none" xmlns="http://www.w3.org/2000/svg">
<line x1="15.9868" y1="58.5002" x2="53.9868" y2="57.5002" stroke="#FD526B"/>
<line x1="0.985513" y1="52.5002" x2="69.9855" y2="50.5002" stroke="#FD526B"/>
<path d="M17.9844 25.5215H25.5039L21.3047 14.4863L17.9844 25.5215ZM13.3945 41.5371L10.0742 40.7559L20.1328 8.91992H22.2812L34.0977 40.9512L30.9727 41.8301L26.3828 28.5488H17.2031L13.3945 41.5371ZM37.6133 41.9277V11.0684V9.11523C38.2318 9.05013 38.8177 9.0013 39.3711 8.96875C39.9245 8.9362 40.4616 8.91992 40.9824 8.91992C43.1634 8.91992 44.9212 9.16406 46.2559 9.65234C47.623 10.1081 48.6647 10.6777 49.3809 11.3613C50.097 12.0449 50.569 12.7611 50.7969 13.5098C51.0573 14.2259 51.1875 14.8444 51.1875 15.3652C51.1875 17.0254 50.7806 18.4902 49.9668 19.7598C49.1855 21.0293 47.9974 21.9082 46.4023 22.3965C51.2852 22.3965 54.8822 23.2266 57.1934 24.8867C59.5371 26.5469 60.709 28.793 60.709 31.625C60.709 34.9779 59.1465 37.5658 56.0215 39.3887C52.8965 41.179 48.1602 42.0742 41.8125 42.0742C40.4779 42.0742 39.0781 42.0254 37.6133 41.9277ZM39.1758 11.9473L39.8594 22.2012C42.3008 21.9733 44.2702 21.306 45.7676 20.1992C47.2975 19.0924 48.0625 17.6113 48.0625 15.7559C48.0625 14.5514 47.5091 13.5911 46.4023 12.875C45.2956 12.1589 43.6517 11.8008 41.4707 11.8008C40.7546 11.8008 39.9896 11.8496 39.1758 11.9473ZM39.957 25.4238L40.7383 38.4121C41.3893 38.4772 42.0078 38.526 42.5938 38.5586C43.2122 38.5911 43.8145 38.6074 44.4004 38.6074C46.2233 38.6074 47.9323 38.4609 49.5273 38.168C51.1224 37.8424 52.5059 37.3704 53.6777 36.752C54.8496 36.1335 55.7611 35.3848 56.4121 34.5059C57.0957 33.627 57.4375 32.6178 57.4375 31.4785C57.4375 30.4694 57.0632 29.5742 56.3145 28.793C55.5983 27.9792 54.638 27.2956 53.4336 26.7422C52.2292 26.1888 50.8294 25.7819 49.2344 25.5215C47.6719 25.2285 46.0605 25.082 44.4004 25.082C43.6517 25.082 42.903 25.1146 42.1543 25.1797C41.4056 25.2448 40.6732 25.3262 39.957 25.4238Z" fill="black"/>
</svg>
