<svg width="61" height="50" viewBox="0 0 61 50" fill="none" xmlns="http://www.w3.org/2000/svg">
<path d="M45.7502 20.4636C45.7502 18.5066 44.0218 16.87 41.7318 16.4762C42.6468 15.2498 43.2085 13.8315 43.2085 12.3011C43.2085 7.79945 38.6487 4.13857 33.0418 4.13857C29.1887 4.13857 25.8692 5.88738 24.146 8.43204C22.4227 5.88738 19.1033 4.13857 15.2502 4.13857C9.64325 4.13857 5.0835 7.79945 5.0835 12.3011C5.0835 14.1417 5.8765 15.8232 7.16004 17.1904C6.51834 17.5669 5.99601 18.0594 5.63527 18.628C5.27454 19.1967 5.08552 19.8254 5.0835 20.4636V36.7886C5.0835 39.0394 7.36337 40.8698 10.1668 40.8698H40.6668C43.4703 40.8698 45.7502 39.0394 45.7502 36.7886V31.4074L55.9168 35.4887V21.2043L45.7502 25.2856V20.4636ZM33.0418 8.21982C35.8453 8.21982 38.1252 10.0503 38.1252 12.3011C38.1252 14.5519 35.8453 16.3823 33.0418 16.3823C30.2384 16.3823 27.9585 14.5519 27.9585 12.3011C27.9585 10.0503 30.2384 8.21982 33.0418 8.21982ZM15.2502 8.21982C18.0536 8.21982 20.3335 10.0503 20.3335 12.3011C20.3335 14.5519 18.0536 16.3823 15.2502 16.3823C12.4467 16.3823 10.1668 14.5519 10.1668 12.3011C10.1668 10.0503 12.4467 8.21982 15.2502 8.21982Z" fill="#FD526B"/>
</svg>
